<svg data-v-423bf9ae="" xmlns="http://www.w3.org/2000/svg" viewBox="0 0 427 90" class="iconLeft"><!----><!----><!----><g data-v-423bf9ae="" id="d889ce74-9abd-49c3-9386-584248d63d8c" fill="#000000" transform="matrix(6.097560882568359,0,0,6.097560882568359,63.527462005615234,9.878047943115234)"><path d="M0.42 10.50L7.45 10.50L7.45 7.91L3.67 7.91L3.67 7.07L6.61 7.07L6.61 4.51L3.67 4.51L3.67 3.71L7.45 3.71L7.45 1.12L0.42 1.12ZM9.06 7L7.67 10.50L10.78 10.50L11.24 8.72L11.80 10.50L15.19 10.50L13.99 6.94L15.23 3.43L12.15 3.43L11.59 5.42L11.03 3.43L7.67 3.43ZM18.72 3.25C16.23 3.25 15.22 4.10 15.22 6.96C15.22 9.63 15.97 10.68 18.72 10.68C19.94 10.68 21.28 10.29 21.28 10.29L21.18 7.84C21.18 7.84 19.71 7.94 19.18 7.94C18.58 7.94 18.38 7.70 18.38 6.96C18.38 6.23 18.59 5.98 19.18 5.98C19.71 5.98 21.15 6.09 21.15 6.09L21.25 3.61C21.25 3.61 19.80 3.25 18.72 3.25ZM25.54 8.37C25.06 8.37 24.86 8.23 24.85 7.88L28.90 7.88L29.04 6.50C29.04 4.27 27.80 3.25 25.38 3.25C22.78 3.25 21.71 4.63 21.71 7.10C21.71 9.58 22.65 10.68 25.31 10.68C27.03 10.68 28.90 10.28 28.90 10.28L28.83 8.25C28.83 8.25 26.82 8.37 25.54 8.37ZM24.84 6.17C24.85 5.66 24.96 5.43 25.38 5.43C25.76 5.43 25.90 5.64 25.90 6.17ZM29.62 10.50L32.76 10.50L32.76 0.84L29.62 0.84ZM36.58 10.50L43.61 10.50L43.61 7.91L39.83 7.91L39.83 7.07L42.77 7.07L42.77 4.51L39.83 4.51L39.83 3.71L43.61 3.71L43.61 1.12L36.58 1.12ZM51.44 0.84L48.30 0.84L48.30 3.33C48.30 3.33 47.56 3.25 47.17 3.25C44.91 3.25 44.07 4.72 44.07 6.97C44.07 9.23 44.67 10.68 46.84 10.68C47.54 10.68 48.31 10.19 48.31 10.19L48.34 10.50L51.44 10.50ZM47.87 8.15C47.31 8.15 47.24 7.60 47.24 6.97C47.24 6.34 47.31 5.78 47.85 5.78C47.99 5.78 48.30 5.82 48.30 5.82L48.30 8.11C48.30 8.11 47.96 8.15 47.87 8.15ZM56.38 3.43L56.38 7.90C56.38 7.90 56.07 7.98 55.76 7.98C55.43 7.98 55.29 7.73 55.29 6.87L55.29 3.43L52.15 3.43L52.15 7.08C52.15 9.51 52.78 10.68 54.81 10.68C55.51 10.68 56.41 10.16 56.41 10.16L56.41 10.50L59.51 10.50L59.51 3.43Z"></path></g><defs data-v-423bf9ae=""><linearGradient data-v-423bf9ae="" gradientTransform="rotate(25)" id="a7cbe9ce-674b-4af6-9307-9df3707bb128" x1="0%" y1="0%" x2="100%" y2="0%"><stop data-v-423bf9ae="" offset="0%" style="stop-color: rgb(95, 37, 23); stop-opacity: 1;"></stop><stop data-v-423bf9ae="" offset="100%" style="stop-color: rgb(202, 176, 141); stop-opacity: 1;"></stop></linearGradient></defs><g data-v-423bf9ae="" id="cc2440ff-9d76-4c4a-9a2f-5e107a30867c" transform="matrix(2.8125,0,0,2.8125,-21.194406509399414,0)" stroke="none" fill="url(#a7cbe9ce-674b-4af6-9307-9df3707bb128)"><path d="M18.396 26.495L7.807 15.905 18.432 5.28l.707.707-9.918 9.918 9.882 9.883z"></path><path d="M23.194 1v4.194H19V1h4.194m1-1H18v6.194h6.194V0zM23.194 26.806V31H19v-4.194h4.194m1-1H18V32h6.194v-6.194z"></path></g><!----></svg>